<svg width="1581" height="1685" xmlns="http://www.w3.org/2000/svg" xmlns:xlink="http://www.w3.org/1999/xlink" xml:space="preserve" overflow="hidden"><defs><clipPath id="clip0"><rect x="21" y="17" width="1581" height="1685"/></clipPath><radialGradient cx="0" cy="4668982" r="6402411" gradientUnits="userSpaceOnUse" spreadMethod="pad" id="fill1" gradientTransform="matrix(0.000360892 0 0 0.000360892 21 16.9998)"><stop offset="0" stop-color="#003D75"/><stop offset="0.49" stop-color="#003D75"/><stop offset="1" stop-color="#32CBEB"/></radialGradient></defs><g clip-path="url(#clip0)" transform="translate(-21 -17)"><path d="M1244.59 16.9998 1476.56 16.9998 1476.56 729.531 1548.08 729.531C1558.75 729.531 1568.42 733.857 1575.41 740.852L1576.86 742.998 1581.12 745.289C1598.47 759.756 1606.46 783.714 1599.48 806.694L1441.39 1327.34C1439.06 1335 1435.29 1341.83 1430.47 1347.61L1425.71 1351.48 1421.94 1357.08C1411.45 1367.57 1396.95 1374.06 1380.93 1374.06L484.922 1374.06 480.19 1373.1 462.403 1388.22 462.403 1401.96 476.922 1410.3 1385.22 1410.3C1406.57 1410.3 1423.88 1427.6 1423.88 1448.95L1423.88 1487.6C1423.88 1508.95 1406.57 1526.25 1385.22 1526.25L1289.32 1526.25 1291.3 1529.9C1297.57 1544.72 1301.04 1561.01 1301.04 1578.12 1301.04 1646.54 1245.57 1702 1177.13 1702 1108.7 1702 1053.23 1646.54 1053.23 1578.12 1053.23 1561.01 1056.69 1544.72 1062.96 1529.9L1064.94 1526.25 722.858 1526.25 724.837 1529.9C731.107 1544.72 734.574 1561.01 734.574 1578.12 734.574 1646.54 679.099 1702 610.667 1702 542.235 1702 486.76 1646.54 486.76 1578.12 486.76 1561.01 490.227 1544.72 496.497 1529.9L498.476 1526.25 476.707 1526.25C471.369 1526.25 466.284 1525.17 461.659 1523.22L461.081 1522.83 460.391 1522.88C453.286 1522.01 446.233 1519.74 439.636 1515.95L390.564 1487.77 387.785 1485.33 384.897 1484.74C364.873 1476.28 350.823 1456.45 350.823 1433.35L350.823 1366.3C350.823 1350.9 357.068 1336.95 367.164 1326.86L371.462 1323.96 375.75 1318.52 413.228 1286.66 221.863 656.575 66.4261 656.575C41.338 656.575 21 636.241 21 611.158L21 586.034C21 560.951 41.338 540.617 66.4261 540.617L265.525 540.617C271.797 540.617 277.772 541.889 283.207 544.187L288.08 547.472 297.399 550.337C307.287 555.618 315.16 564.67 318.675 576.242L525.764 1258.1 1341.2 1258.1 1466.5 845.488 465.592 845.488C444.241 845.488 426.932 828.182 426.932 806.835L426.932 768.184C426.932 746.837 444.241 729.531 465.592 729.531L658.893 729.531 658.893 395.672 890.854 395.672 890.854 729.531 954.643 729.531 954.643 221.736 1186.6 221.736 1186.6 729.531 1244.59 729.531Z" fill="url(#fill1)" fill-rule="evenodd"/></g></svg>